<?xml version="1.0" standalone="no"?>
<!DOCTYPE svg PUBLIC "-//W3C//DTD SVG 1.1//EN" "http://www.w3.org/Graphics/SVG/1.1/DTD/svg11.dtd">
<svg xmlns="http://www.w3.org/2000/svg" width="1024" height="1024" viewBox="0 0 1024 1024"><path fill="#0558B1" d="M508 194h8l30 13 35 16 35 16 36 16 26 12 12 6 3 3 1 8-4 6-29 16-24 13-18 10-27 15-29 16-24 13-20 11h-11l-29-15-22-12-28-15-34-18-26-14-32-17-5-5-2-3v-6l4-6 30-14 36-16 39-18 20-9 37-17Zm2 25-32 15-33 15-35 16-24 11-14 6 1 3 16 8 33 17 22 12 37 19 20 11 13 6 34-18 18-10 24-13 29-16 26-14 6-3v-2l-41-19-41-19-28-13-26-12Z"/><path fill="#0558B1" d="M389 346h10l8 4 4 5 2 5 1 53 3 7 7 6v2l4 2 14 12 11 9 14 12 11 9 11 9 7-6 59-59 1-2h2l1-3h2l2-4 57-57 9-4h11l1 120 6 3 4 5 2 4v24l-3 6-5 2h-36l-5-4-1-2v-25l3-7 6-5 4-1-1-73-5 5-13 13-7 8-86 86-6 4-3 1h-7l-10-5-12-10-11-9-14-12-10-8-13-11-11-9-11-9-6-10-1-3Z"/><path fill="#222325" d="M670 653h15l13 4 8 6 2 2 1-10h25v103l-3 12-6 12-10 10-16 8-8 2-13 1-14-1-15-5-11-7-5-4 2-5 10-12 2-2 8 6 10 5 8 2h9l12-3 8-7 4-7 2-8v-11l-5 6-9 5-10 3h-14l-12-3-10-6-5-4-9-13-4-12-1-5v-18l3-12 6-12 9-10 12-7Zm4 23-8 4-7 7-4 9-1 10 2 11 4 8 9 8 9 3h8l10-3 8-7 4-6 3-10v-8l-2-9-5-8-7-6-8-3Z"/><path fill="#232326" d="M163 613h23l12 3 10 4 10 7 9 8 7 10v2l-18 11h-4l-7-8-8-6-10-4-4-1h-16l-12 4-10 7-7 9-5 11-2 10v17l3 12 6 11 7 7 14 7 9 2h11l11-3 8-4 10-9 3-4 5 1 17 10-2 5-6 8-8 8-11 7-13 5-10 2h-19l-16-4-16-8-10-8-8-9-7-12-5-16-1-7v-20l3-14 5-12 6-10 9-10 9-8 16-8Z"/><path fill="#0557AE" d="M857 617h25l11 27 18 46 18 46 8 22h-27l-7-18-6-16-55-1-2 9-10 26h-26l3-11 17-44 20-53Zm12 34-9 24-9 24v3h38l-3-10-14-38-1-3Z"/><path fill="#222225" d="M556 653h19l16 5 12 9 7 11 4 11 1 5v21h-77l5 12 6 7 9 4 5 1h12l9-3 7-6 1-2 6 1 15 5-2 6-8 10-10 7-11 4-4 1h-20l-12-3-11-6-9-8-7-11-4-10-1-5v-23l3-11 6-12 8-9 11-7 9-3Zm1 21-8 4-8 9-2 9h52l-1-7-3-6-8-7-5-2Z"/><path fill="#222326" d="M291 653h17l15 4 10 6 9 8 7 11 4 12 1 6v13l-3 14-6 12-11 12-12 7-9 3-5 1h-17l-16-5-9-6-7-6-7-11-4-11-1-4v-22l4-13 6-10 9-10 9-6 11-4Zm5 23-9 3-8 6-4 6-3 9v15l4 10 7 8 8 4 3 1h11l9-3 9-8 5-12v-15l-4-11-5-6-8-5-7-2Z"/><path fill="#0557AE" d="M758 617h26v141h-26Z"/><path fill="#222225" d="M414 653h14l3 1-2 18-1 7-14 1-9 4-5 6-3 12-1 56h-26V655h26v12l4-5 7-6Z"/><path fill="#212225" d="M490 653h13l3 1-1 11-2 14-15 1-8 4-5 6-2 6-1 62h-26V655h25l1 12 6-8 8-5Z"/></svg>